<svg xmlns="http://www.w3.org/2000/svg" width="110" height="35" fill="none"><path fill="#535456" fill-rule="evenodd" d="M18.961 1.836 18.391 0l-.57 1.835h-1.843l1.492 1.133-.569 1.835 1.49-1.134 1.491 1.135-.57-1.835 1.492-1.133H18.96Zm0 30.195-.57-1.835-.57 1.836h-1.843l1.492 1.133L16.9 35l1.49-1.134L19.882 35l-.57-1.836 1.492-1.133H18.96Zm7.583-27.738-.57-1.835-.57 1.835H23.56l1.492 1.134-.571 1.835 1.491-1.134 1.492 1.134-.57-1.836 1.492-1.133h-1.843Zm6.204 5.491-.57-1.834-.57 1.834h-1.842l1.491 1.134-.57 1.836 1.491-1.134 1.492 1.134-.57-1.836 1.491-1.134h-1.843Zm0 14.699-.57-1.837-.569 1.837h-1.843l1.491 1.133-.57 1.835 1.491-1.134 1.492 1.134-.57-1.835 1.491-1.133h-1.843ZM5.174 9.785l-.57-1.834V7.95l-.57 1.834H2.191l1.491 1.134-.57 1.836 1.492-1.134 1.491 1.134-.57-1.836 1.491-1.133H5.174Zm28.952 7.149-.569-1.836-.57 1.836h-1.843l1.492 1.133-.57 1.836 1.491-1.134 1.492 1.134-.57-1.836 1.49-1.133h-1.843Zm-30.331 0-.57-1.836-.569 1.836H.812l1.491 1.133-.57 1.836 1.492-1.134 1.491 1.134-.57-1.836 1.492-1.133H3.795Zm1.379 7.55-.57-1.836-.57 1.836H2.191l1.491 1.133-.57 1.835 1.492-1.134 1.491 1.134-.57-1.835 1.491-1.133H5.174Zm22.748 6.175-.568-1.835-.57 1.836h-1.845l1.492 1.133-.57 1.835 1.492-1.134 1.491 1.134-.57-1.835 1.492-1.134h-1.844Zm-17.114-28.2v-.001.002Zm.57 1.834-.57-1.833-.57 1.833H8.396l1.492 1.134-.57 1.835 1.49-1.134L12.3 7.262l-.57-1.836 1.492-1.133h-1.844ZM10 30.659l-.57-1.836-.57 1.836H7.019l1.492 1.133-.571 1.835 1.492-1.134 1.491 1.134-.57-1.835 1.49-1.133H10Zm7.875-9.696 5.42-5.51a.413.413 0 0 0-.001-.578l-.999-1.005a.396.396 0 0 0-.568 0l-4.47 4.546a.399.399 0 0 1-.569 0l-1.63-1.65a.398.398 0 0 0-.57 0l-1.003 1.019a.415.415 0 0 0-.002.577l2.553 2.6c.156.16.464.29.686.29h.466c.256-.015.498-.117.687-.29Zm34.513-2.925c-3.36 0-6.094-2.229-6.094-5.783h-.001c0-3.555 2.735-5.785 6.094-5.785 2.466 0 3.986 1.207 4.813 2.6l-2.431 1.273a2.802 2.802 0 0 0-2.38-1.324c-1.842 0-3.14 1.408-3.14 3.236 0 1.827 1.299 3.235 3.138 3.235.878 0 1.672-.301 2.128-.67v-.94h-2.583v-2.396h5.436v4.375c-1.215 1.324-2.852 2.18-4.98 2.18Zm6.686-11.384v11.183h4.744c3.528 0 6.079-2.13 6.079-5.6 0-3.47-2.55-5.583-6.096-5.583h-4.727Zm4.727 8.668h-1.824V9.17h1.841c2.06 0 3.106 1.341 3.106 3.067 0 1.66-1.148 3.085-3.123 3.085Zm7.546-8.668v11.183h2.904v-3.789h2.734c2.534 0 3.918-1.66 3.918-3.671 0-2.03-1.384-3.723-3.918-3.723h-5.638Zm5.25 2.432c.777 0 1.352.502 1.352 1.274 0 .754-.575 1.241-1.351 1.241h-2.346V9.086h2.345Zm9.996 4.963 1.89 3.788h3.327l-2.297-4.107c1.047-.368 2.245-1.408 2.245-3.353 0-2.08-1.417-3.723-3.915-3.723h-5.64v11.183h2.903V14.05h1.487Zm.81-4.963c.76 0 1.401.486 1.401 1.257 0 .77-.641 1.258-1.4 1.258h-2.297V9.086h2.295ZM47.05 27.56c0 2.282 1.29 3.69 3.388 3.69 1.797 0 3.04-1.092 3.156-2.656v-.077h-1.713l-.01.054c-.121.722-.66 1.203-1.428 1.203-.981 0-1.578-.84-1.578-2.219v-.01c0-1.369.598-2.204 1.574-2.204.766 0 1.33.515 1.432 1.248l.004.043h1.715v-.087c-.102-1.548-1.389-2.68-3.152-2.68-2.102 0-3.388 1.403-3.388 3.685v.01Zm7.506 0c0 2.277 1.34 3.69 3.456 3.69 2.108 0 3.453-1.413 3.453-3.69v-.01c0-2.273-1.35-3.685-3.453-3.685-2.107 0-3.456 1.413-3.456 3.685v.01Zm5.093 0c0 1.35-.655 2.214-1.637 2.214-.995 0-1.645-.864-1.645-2.214v-.01c0-1.344.66-2.21 1.645-2.21.98 0 1.637.866 1.637 2.21v.01Zm3.141-3.506v7.006l1.568.001V26.6h.098l1.593 4.461h1.014l1.592-4.461h.102v4.46h1.563v-7.006h-2.023l-1.69 4.753h-.093l-1.694-4.753h-2.03Zm9.186 0v7.006h1.783v-2.053h1.233c1.568 0 2.577-.96 2.577-2.462v-.01c0-1.5-1.01-2.48-2.577-2.48h-3.016Zm1.783 1.365h.805c.758 0 1.203.388 1.203 1.116v.01c0 .729-.445 1.122-1.203 1.122h-.805v-2.248Zm5.122-1.365v7.006h4.758v-1.431h-2.976v-5.575H78.88Zm6.06 0v7.006h1.78v-7.006h-1.78Zm5.32 0-2.355 7.006h1.87l.431-1.538h2.287l.433 1.538h1.87l-2.356-7.006h-2.18Zm.306 4.185.738-2.64h.092l.738 2.64h-1.568Zm5.405-4.185v7.006h1.688v-3.981h.087l2.934 3.981h1.412v-7.006h-1.69v3.943h-.087l-2.923-3.943h-1.421Zm9.413 1.433v5.573h1.777v-5.573h2.024v-1.432h-5.821v1.432h2.02Z" clip-rule="evenodd"/></svg>