<svg xmlns="http://www.w3.org/2000/svg" width="89" height="34" fill="none"><path fill="#535456" d="m60.739 19.31.888.267a1.52 1.52 0 0 1-.281.622 1.152 1.152 0 0 1-.474.37c-.193.089-.43.133-.726.133-.355 0-.636-.044-.873-.148-.223-.103-.415-.281-.578-.548-.163-.251-.252-.592-.252-.992 0-.533.148-.948.43-1.244.281-.296.696-.43 1.214-.43.415 0 .726.09.963.253s.414.414.518.77l-.889.192a.517.517 0 0 0-.103-.222.602.602 0 0 0-.208-.178.581.581 0 0 0-.266-.059c-.222 0-.4.089-.518.281-.09.134-.134.356-.134.637 0 .356.06.607.163.74a.564.564 0 0 0 .46.208c.192 0 .34-.06.429-.163a1.01 1.01 0 0 0 .237-.489Zm1.243-.296c0-.533.148-.947.445-1.244.296-.296.71-.444 1.244-.444.548 0 .962.148 1.258.43.296.296.445.696.445 1.229 0 .385-.06.696-.193.933-.133.237-.31.43-.563.562-.237.134-.548.208-.903.208-.37 0-.666-.06-.918-.178a1.432 1.432 0 0 1-.592-.563c-.163-.266-.223-.548-.223-.933Zm1.007 0c0 .326.06.563.178.711.119.148.281.222.504.222a.636.636 0 0 0 .503-.207c.118-.148.178-.4.178-.755 0-.311-.06-.533-.193-.667-.118-.148-.296-.207-.503-.207a.592.592 0 0 0-.489.222c-.118.119-.178.356-.178.681Zm2.901-1.629h1.319l.503 1.984.504-1.984h1.318v3.258h-.83v-2.488l-.636 2.488h-.74l-.637-2.488v2.488h-.83v-3.258h.03Zm4.296 0h1.673c.37 0 .637.089.814.266.178.178.267.415.267.74 0 .327-.104.593-.296.77-.193.193-.504.282-.904.282h-.547v1.214h-1.007v-3.272Zm1.006 1.392h.252c.193 0 .326-.03.415-.104.074-.074.118-.148.118-.252a.357.357 0 0 0-.103-.266c-.074-.074-.193-.104-.385-.104h-.282v.726h-.014Zm2.281-1.392h1.007v2.458h1.57v.8h-2.577v-3.258Zm3.082 0h1.007v3.258h-1.007v-3.258Zm3.731 2.71h-1.14l-.163.533H77.96l1.229-3.258h1.096l1.229 3.258h-1.051l-.178-.533Zm-.207-.696-.356-1.17-.355 1.17h.71Zm1.747-2.014h.933l1.23 1.806v-1.806h.947v3.258h-.948l-1.214-1.792v1.792h-.948v-3.258Zm3.553 0h3.065v.8h-1.022v2.458h-1.007v-2.459h-1.021v-.8h-.015Zm-36.754 4.961 2.917-.918-.948-2.103c-.696.874-1.392 1.999-1.969 3.02Zm-.992-9.61L41.917 0 .068 2.37 11.663 34l22.317-7.034c-1.422-2.044-1.94-4.472-.297-5.657 1.837-1.332 4.606.207 6.368 2.384 1.703-2.843 6.486-9.462 7.582-10.958Z"/><path fill="#FEFEFE" d="M40.612 9.203c1.748 0 3.17-1.332 3.17-2.991s-1.422-2.991-3.17-2.991c-1.747 0-3.169 1.332-3.169 2.991 0 1.644 1.422 2.991 3.17 2.991Zm-2.591 1.289h5.183v13.55H38.02v-13.55Zm-2.561 3.954c.045.014.075 0 .075-.045v-3.435c0-.045-.03-.09-.074-.119 0 0-.681-.444-2.755-.563-.103-.059-1.925-.074-2.413 0-7.553.608-7.834 6.072-7.834 6.309v1.333c0 .163 0 5.745 7.834 6.234.77.06 2.265 0 2.413 0 1.807 0 3.05-.548 3.05-.548a.111.111 0 0 0 .075-.104v-3.213c0-.045-.03-.06-.06-.03 0 0-.562.445-3.02.696-.696.074-1.037.045-1.288 0-3.495-.592-3.658-3.139-3.658-3.139 0-.044-.015-.119-.015-.148v-.977c0-.045 0-.119.015-.149 0 0 .237-2.74 3.657-3.035h1.289c1.495.192 2.71.933 2.71.933ZM8.064 23.997c0 .044.03.073.074.073h5.05c.045 0 .074-.03.074-.073v-3.94a.07.07 0 0 1 .074-.074s8.07.578 8.07-4.827c0-4.28-5.064-4.739-6.722-4.665H8.138a.07.07 0 0 0-.074.074v13.432Zm5.11-7.02v-3.539h1.243s1.792.074 1.94 1.303c.03.09.03.696 0 .726-.237 1.436-1.792 1.51-1.792 1.51h-1.392Z"/><path fill="#535456" d="M40.763 30.58c.414 0 .74 0 1.273-.238 1.836-.962 8.04-16.111 14.586-20.776a.45.45 0 0 0 .119-.118c.044-.06.044-.119.044-.119s0-.31-.962-.31c-5.82-.164-11.877 12.053-15.06 16.88-.045.06-.252 0-.252 0s-2.133-2.517-3.984-3.48c-.044-.014-.252-.088-.474-.073-.148 0-1.007.177-1.406.592-.474.504-.46.785-.46 1.392 0 .045.03.252.09.356.459.8 2.517 3.642 4.22 5.212.252.192.651.681 2.266.681ZM58.34 4.99h4.842c.963 0 1.733.134 2.31.385a3.77 3.77 0 0 1 1.451 1.11c.386.49.667 1.052.83 1.689.178.637.266 1.318.266 2.044 0 1.125-.133 1.999-.385 2.62a4.343 4.343 0 0 1-1.066 1.57c-.459.415-.948.696-1.466.844a7.478 7.478 0 0 1-1.94.282H58.34V4.99Zm3.258 2.384v5.76h.8c.68 0 1.17-.073 1.45-.221.282-.148.519-.415.682-.785.163-.37.251-.992.251-1.836 0-1.126-.177-1.881-.547-2.296-.37-.414-.963-.622-1.822-.622h-.814Zm7.343 4.68 3.11-.193c.074.504.207.889.415 1.155.34.43.814.637 1.436.637.46 0 .83-.103 1.081-.325.252-.223.385-.474.385-.756 0-.266-.118-.518-.355-.74-.237-.222-.8-.415-1.674-.607-1.436-.326-2.443-.755-3.065-1.289-.622-.533-.918-1.214-.918-2.043 0-.548.163-1.052.474-1.54.31-.489.785-.86 1.421-1.14.637-.282 1.496-.415 2.592-.415 1.347 0 2.384.252 3.08.755.71.504 1.126 1.303 1.259 2.399l-3.08.178c-.09-.474-.252-.815-.519-1.037-.266-.222-.622-.326-1.08-.326-.386 0-.667.074-.86.237a.735.735 0 0 0-.28.593.59.59 0 0 0 .236.459c.148.133.518.266 1.096.385 1.422.31 2.443.622 3.065.933.622.31 1.066.71 1.348 1.17.281.459.414.992.414 1.57a3.33 3.33 0 0 1-.562 1.865c-.37.578-.904 1.007-1.57 1.303-.666.296-1.525.444-2.547.444-1.792 0-3.036-.34-3.732-1.036-.68-.696-1.066-1.57-1.17-2.636Zm10.411 0 3.11-.193c.073.504.207.889.414 1.155.34.43.814.637 1.436.637.46 0 .83-.103 1.081-.325.252-.223.385-.474.385-.756 0-.266-.118-.518-.355-.74-.237-.222-.8-.415-1.673-.607-1.437-.326-2.444-.755-3.066-1.289-.607-.533-.918-1.214-.918-2.043 0-.548.163-1.052.474-1.54.311-.489.785-.86 1.422-1.14.636-.282 1.495-.415 2.591-.415 1.348 0 2.384.252 3.08.755.711.504 1.126 1.303 1.259 2.399l-3.08.178c-.089-.474-.252-.815-.519-1.037-.266-.222-.621-.326-1.08-.326-.385 0-.667.074-.86.237a.735.735 0 0 0-.28.593c0 .163.073.325.236.459.148.133.519.266 1.096.385 1.422.31 2.443.622 3.065.933.622.31 1.067.71 1.348 1.17.281.459.415.992.415 1.57a3.33 3.33 0 0 1-.563 1.865c-.37.578-.904 1.007-1.57 1.303-.666.296-1.525.444-2.547.444-1.792 0-3.036-.34-3.732-1.036-.696-.696-1.08-1.57-1.17-2.636Z"/></svg>