<svg xmlns="http://www.w3.org/2000/svg" width="74" height="32" fill="none"><path fill="#535456" fill-rule="evenodd" d="M24.412 1.899a15.557 15.557 0 0 0-8.42-1.87 15.527 15.527 0 0 0-8.115 2.944A15.328 15.328 0 0 0 2.538 9.89a15.438 15.438 0 0 0-1.015 4.478h3.846a11.668 11.668 0 0 1 3.678-7.476 11.624 11.624 0 0 1 7.727-3.111 11.696 11.696 0 0 1 8.002 2.968 11.712 11.712 0 0 1 3.846 7.613h3.834c-.25-4.198-2.61-9.483-8.044-12.468V1.9Zm-6.33 9.793c-.25.305-.585.514-.973.627a1.834 1.834 0 0 1-1.159-.042 1.586 1.586 0 0 1-.74-.418 1.692 1.692 0 0 1-.448-.71 1.718 1.718 0 0 1-.042-.836 1.6 1.6 0 0 1 .364-.753 1.984 1.984 0 0 1 1.296-.639c.502-.042.992.096 1.38.406.125.096.239.21.346.323.06-.042.12-.086.184-.133.082-.061.17-.125.264-.19a1.992 1.992 0 0 0-.699-.639 2.71 2.71 0 0 0-1.69-.304c-.304.03-.615.125-.89.263a2.42 2.42 0 0 0-.71.585 2.164 2.164 0 0 0-.418.794 2.139 2.139 0 0 0-.054.89 2.19 2.19 0 0 0 1.284 1.767c.418.197.89.263 1.35.221.555-.012 1.099-.239 1.534-.597.061-.05.113-.107.165-.163.045-.049.09-.097.14-.141l-.472-.335s0 .012-.012.03v-.006Zm3.535 1.14h.663l.699-1.397h1.857l.71 1.398h.658l-.03-.06c-.754-1.526-1.503-3.041-2.258-4.556l-.766 1.535v.002a829.42 829.42 0 0 0-1.533 3.079Zm1.654-1.964c.097-.198.196-.394.295-.59.116-.23.232-.46.345-.694.138.27.272.542.405.811l.233.473h-1.277Zm-15.43 1.965h.663c.239-.46.472-.932.698-1.398h1.858c.136.263.27.53.406.797.1.2.202.401.304.6h.657L10.14 8.206c-.382.773-.766 1.543-1.15 2.314-.383.77-.767 1.54-1.15 2.314Zm1.636-1.965c.138-.283.28-.561.427-.846.076-.148.153-.297.23-.45l.212.429c.145.292.286.577.427.867H9.477Zm12.678-.585a1.16 1.16 0 0 0 .179-.514 1.208 1.208 0 0 0-.084-.543 1.243 1.243 0 0 0-.322-.448 1.097 1.097 0 0 0-.49-.25 2.177 2.177 0 0 0-.657-.073 25.03 25.03 0 0 0-.891-.002l-.458.002h-.072v4.378h.585v-1.965h.43c.081-.004.163-.006.245-.008.203-.006.408-.013.603-.034a1.43 1.43 0 0 0 .532-.155 1.5 1.5 0 0 0 .388-.388h.012Zm-.472-.418a.548.548 0 0 1-.239.292.687.687 0 0 1-.364.114c-.242.008-.49.005-.74.002a33.792 33.792 0 0 0-.377-.002V8.987c.154.005.305.007.456.01.23.005.457.009.685.02a.66.66 0 0 1 .28.071.582.582 0 0 1 .317.478.706.706 0 0 1-.03.305l.012-.006Zm-8.915 2.956h.597V8.443h-.598v4.378Zm39.621 11.43h1.015v3.248h1.159V24.25h1.033v-.907h-3.207v.907Zm3.523 3.236h1.159V23.33h-1.159v4.156Zm5.423 0h1.158V23.33h-1.158v4.156Zm-3.542-3.332v3.332h1.159v-1.648h1.421v-.848h-1.421v-.836h1.857v-.824h-2.998l-.012.824h-.006Zm5.429 0v3.344h2.997v-.824h-1.857v-.932h1.421v-.848h-1.42v-.74h1.856v-.824h-2.997v.824Zm-18.267 3.344h2.997v-.824h-1.857v-.932h1.421v-.848h-1.421v-.74h1.857v-.824h-2.997v4.168ZM68.56 23.33h-1.714v4.156h1.714a1.854 1.854 0 0 0 1.851-1.851v-.46c0-.49-.197-.961-.543-1.308a1.905 1.905 0 0 0-1.308-.531v-.006Zm-.573 3.35v-2.508l.124-.003c.433-.017 1.13-.043 1.13 1.257.01 1.294-.691 1.271-1.133 1.256a3.876 3.876 0 0 0-.121-.002Zm-15.938-2.055c0-.167-.03-.334-.096-.501a1.656 1.656 0 0 0-.28-.418 1.391 1.391 0 0 0-.419-.28 1.176 1.176 0 0 0-.501-.096H48.59v4.156h1.159v-1.565h.418l.639 1.565h1.295l-.71-1.732a1.48 1.48 0 0 0 .49-.472 1.3 1.3 0 0 0 .167-.657Zm-1.619.478h-.68v-.95h.68a.49.49 0 0 1 .335.138.485.485 0 0 1 .137.334.488.488 0 0 1-.137.335.437.437 0 0 1-.335.137v.006Zm-7.596-6.067h1.577v-4.449h1.41v-.346l1.349 2.442v2.371h1.576v-2.37l1.858-3.333h-1.69l-.95 1.786-.95-1.786h-5.589v1.254h1.41v4.431Zm17.258-4.574v-1.129h-4.126v5.703h4.127V17.92h-2.539v-1.284h1.953v-1.17h-1.953v-1.003h2.538Zm-17.335 8.76h-.15c-.49 0-.949.197-1.295.532a1.826 1.826 0 0 0-.544 1.296v.71c0 .239.042.472.138.699.095.227.22.418.388.597.167.167.376.305.597.388.221.096.46.137.699.137h.155c.448 0 .866-.179 1.182-.49.317-.31.49-.74.49-1.182h-1.099c-.083.616-.364.825-.698.825-.406 0-.723-.293-.723-1.267 0-.973.322-1.397.723-1.397.322 0 .597.293.698.908h1.099v-.084c0-.448-.18-.878-.49-1.182a1.637 1.637 0 0 0-1.17-.49ZM56.33 9.53h.21a2.263 2.263 0 0 0 2.257-2.245h-1.481c-.114.824-.49 1.099-.932 1.099-.543 0-.973-.406-.973-1.702 0-1.296.43-1.881.973-1.881.43 0 .806.388.932 1.212h1.48v-.125c0-.598-.238-1.17-.656-1.607a2.283 2.283 0 0 0-1.607-.657h-.209a2.468 2.468 0 0 0-2.466 2.467v.961c0 .323.072.64.18.95.125.292.304.573.53.794.222.22.502.406.795.531.304.138.627.197.961.197l.006.006Zm-1.618 7.011.041-.031c.041-.032.083-.063.114-.094.005-.005.01-.007.014-.01.009-.005.016-.009.016-.02a.534.534 0 0 0 .096-.114.246.246 0 0 0 .053-.071.221.221 0 0 0 .054-.084.367.367 0 0 0 .072-.114 1.79 1.79 0 0 0 .239-.89c0-.238-.042-.459-.138-.68a1.627 1.627 0 0 0-.388-.573 1.944 1.944 0 0 0-.573-.388 1.871 1.871 0 0 0-.68-.138h-2.969v5.703h1.577v-2.132h1.38a1.75 1.75 0 0 0 1.098-.364h-.006Zm-2.436-.782v-1.296h.931a.66.66 0 0 1 .46.197.658.658 0 0 1 .197.46.658.658 0 0 1-.197.46.657.657 0 0 1-.46.197h-.931v-.018Zm12.504-2.425h-1.576v5.703h1.576v-5.703Zm1.021 5.703h1.577v-5.703H65.8v5.703ZM50.7 9.53h.305a2.277 2.277 0 0 0 1.797-.896 2.44 2.44 0 0 0 .573-1.576v-.961a2.44 2.44 0 0 0-.573-1.577 2.277 2.277 0 0 0-1.797-.896H50.7a2.277 2.277 0 0 0-1.797.896 2.507 2.507 0 0 0-.574 1.577v.961c0 .573.197 1.129.574 1.577a2.277 2.277 0 0 0 1.797.895Zm-.657-4.019a1.207 1.207 0 0 1 .124-.268c.005-.008.01-.017.02-.024a.112.112 0 0 0 .027-.034.12.12 0 0 1 .014-.02.057.057 0 0 0 .011-.017.055.055 0 0 1 .02-.025c.011-.008.02-.019.03-.029a.244.244 0 0 1 .011-.013c.012-.011.03-.03.03-.041l.042-.042.03-.03s.053-.042.071-.054l.012-.012s.042-.03.072-.03a.014.014 0 0 0 .011-.005.028.028 0 0 1 .019-.006l.025-.01a.199.199 0 0 0 .046-.02h.03s.054-.012.084-.012h.22s.054.012.084.012h.03s.042.012.072.03l.03.011s.041.03.071.03l.012.012s.054.042.072.054l.03.03.042.042c.012.012.03.03.03.041l.041.042c.012.012.03.03.03.042a.257.257 0 0 1 .021.027l.021.027c.005.005.008.01.01.017a.055.055 0 0 0 .02.025c.042.083.083.167.113.25.126.377.18.765.168 1.17.011.323-.03.64-.114.962v.03a.429.429 0 0 1-.034.081l-.008.015a3.376 3.376 0 0 1-.062.137l-.033.072s0 .012-.012.012a.163.163 0 0 1-.054.071v.012s-.042.042-.054.072a1.032 1.032 0 0 1-.197.155s-.03.012-.054.03c-.011 0-.03.012-.03.012a.063.063 0 0 0-.02.006c-.008.003-.015.006-.021.006-.005 0-.011.002-.018.004a.108.108 0 0 1-.036.008c-.012 0-.03 0-.03.012a.12.12 0 0 0-.036.006.119.119 0 0 1-.036.006h-.22s-.042 0-.072-.012c-.012 0-.03 0-.03-.012l-.008-.001-.01-.004a.107.107 0 0 0-.036-.007c-.006 0-.013-.003-.02-.006-.008-.003-.016-.006-.022-.006-.006 0-.013-.003-.02-.006-.008-.003-.015-.006-.021-.006-.012 0-.03-.012-.054-.03a.685.685 0 0 1-.197-.155s-.042-.042-.054-.072v-.012s-.03-.042-.054-.071c0 0 0-.012-.011-.012a1.084 1.084 0 0 1-.096-.21 1.458 1.458 0 0 0-.042-.095v-.03a3.237 3.237 0 0 1-.113-.961c-.054-.388 0-.794.125-1.17h-.042Zm-4.711 2.903c-.783 0-1.016-.765-1.045-.89l-.783.179-.657.125c.138.74.741 1.786 2.443 1.786 2.191 0 2.4-1.451 2.4-1.911 0-1.164-.942-1.483-1.997-1.84l-.05-.017c-.67-.221-.849-.305-.849-.597 0-.293.28-.46.627-.46.46 0 .723.25.92.669l1.266-.448c-.251-.723-.74-1.41-2.245-1.41-1.505 0-2.162.962-2.162 1.69 0 1.004.472 1.44 1.66 1.84l.253.087c.697.238 1 .341 1 .695-.011.293-.262.502-.781.502Zm18.685-3.518c.43.126.49.574.346.878-.137.323-.74.836-1.033 1.057-.46.346-1.797 1.38-1.797 1.38v1.254h4.478V8.21h-2.466s.364-.251 1.2-.848c.836-.598 1.17-1.296 1.17-1.774s-.011-1.965-2.149-1.965-2.317 1.911-2.317 1.911l1.397.406c.156-1.057.848-1.14 1.17-1.045Zm-46.8 22.215a11.323 11.323 0 0 1-6.945-2.132c-2.651-1.9-4.24-4.461-4.813-7.668H1.582c.806 7.644 7.626 14.236 16.386 13.693 8.074-.49 13.777-6.957 14.434-13.693h-3.876a11.615 11.615 0 0 1-3.875 6.945 11.708 11.708 0 0 1-7.435 2.86v-.005Zm-1.463-4.282c.305.125.639.197.973.18.335 0 .67-.084.974-.222.28-.113.531-.304.74-.531.197-.24.346-.514.418-.806a2.515 2.515 0 0 0-.03-1.44 2.007 2.007 0 0 0-.364-.698 1.748 1.748 0 0 0-.615-.49 2.314 2.314 0 0 0-1.129-.25h-.25a.59.59 0 0 0-.074.005.656.656 0 0 1-.082.006 2.09 2.09 0 0 0-.92.335c-.28.179-.501.43-.656.71a2.461 2.461 0 0 0-.28 1.308c.053.878.459 1.535 1.283 1.881l.012.012Zm.376-3.47a1.62 1.62 0 0 1 .89-.083c.293.072.573.22.764.46.251.334.377.74.347 1.158a1.68 1.68 0 0 1-.514 1.099c-.657.585-2.036.46-2.329-.794a1.536 1.536 0 0 1-.042-.305c-.03-.71.305-1.296.878-1.534h.006Zm-3.666 2.956c-.168 0-.347-.03-.502-.113a1.072 1.072 0 0 1-.376-.334c-.09.098-.18.195-.272.292-.091.097-.182.194-.272.293.138.167.323.292.514.376.388.167.806.209 1.224.137.68-.113 1.129-.555 1.17-1.212a1.05 1.05 0 0 0-.125-.657 1.105 1.105 0 0 0-.49-.46 7.163 7.163 0 0 0-.538-.214l-.017-.006a6.993 6.993 0 0 1-.627-.263.41.41 0 0 1-.197-.24.445.445 0 0 1 .012-.304.69.69 0 0 1 .125-.197.434.434 0 0 1 .171-.102l.026-.011a.93.93 0 0 1 .586-.03.954.954 0 0 1 .49.305c.089-.099.18-.193.27-.287h.001c.091-.094.182-.188.272-.287-.042-.042-.072-.072-.114-.083a1.838 1.838 0 0 0-1.14-.347c-.347 0-.699.096-1.004.28-.68.419-.752 1.631.114 2.025.123.056.25.1.376.144a4.317 4.317 0 0 1 .794.346.379.379 0 0 1 .138.167.39.39 0 0 1 .053.21.559.559 0 0 1-.041.22.653.653 0 0 1-.138.18c-.095.113-.292.166-.49.166l.007.006Zm7.488.03c.699.681 1.523.806 2.424.532a1.6 1.6 0 0 0 .807-.615l-.627-.448s-.042.042-.054.072c-.615.74-1.589.46-1.995-.054a1.598 1.598 0 0 1-.292-.627 1.713 1.713 0 0 1-.03-.699c.042-.346.209-.669.472-.908.418-.376 1.254-.555 1.797.042.012.012.03.03.042.03l.585-.43a1.656 1.656 0 0 0-.573-.46 2.167 2.167 0 0 0-1.296-.179c-.28.03-.543.126-.782.263a2.06 2.06 0 0 0-.615.543 2.32 2.32 0 0 0-.43 1.535 1.98 1.98 0 0 0 .555 1.41l.012-.007Zm-1.576 1.559a.516.516 0 0 0-.168.334.513.513 0 0 0 .096.365.559.559 0 0 0 .167.137.54.54 0 0 0 .209.054c.072.012.137 0 .209-.03a.4.4 0 0 0 .167-.126c.012.251-.03.388-.167.448a.453.453 0 0 1-.293.03.515.515 0 0 1-.25-.155c-.042.042-.084.084-.114.137.084.084.18.138.293.167.113.03.22.03.334 0a.376.376 0 0 0 .221-.113.335.335 0 0 0 .125-.221l.011-.057c.01-.05.02-.1.02-.152v-.89h-.156c0 .042 0 .084-.012.138a.49.49 0 0 0-.334-.168.576.576 0 0 0-.364.096l.006.006Zm.686.388c0 .042 0 .096-.03.137a.285.285 0 0 1-.071.114.503.503 0 0 1-.077.058l-.037.026a.73.73 0 0 0-.018.005l-.009.003c-.033.01-.068.021-.11.021a.416.416 0 0 1-.239-.095.416.416 0 0 1-.095-.24c0-.041 0-.083.011-.125a.284.284 0 0 1 .072-.113.367.367 0 0 1 .114-.072.322.322 0 0 1 .125-.03c.042 0 .084.012.125.03a.282.282 0 0 1 .114.072c.03.03.054.072.072.114.041 0 .053.041.053.095Zm-5.326-.472h-.156v1.421h.155v-.597c.251.21.502.221.7.042a.601.601 0 0 0 .155-.334.503.503 0 0 0-.096-.347.445.445 0 0 0-.28-.179.446.446 0 0 0-.224-.004l-.028.004c-.083.012-.155.072-.22.138v-.138l-.006-.006Zm.346.126a.38.38 0 0 1 .137.03.257.257 0 0 1 .114.083c.03.03.053.072.071.114a.18.18 0 0 1 .012.137c0 .042 0 .084-.012.125a.283.283 0 0 1-.071.114.504.504 0 0 1-.077.058 1.232 1.232 0 0 0-.037.025l-.031.01a.314.314 0 0 1-.094.02.38.38 0 0 1-.137-.03.369.369 0 0 1-.114-.071.369.369 0 0 1-.072-.114.332.332 0 0 1-.03-.137c0-.042 0-.096.03-.137a.283.283 0 0 1 .072-.114.508.508 0 0 1 .076-.058l.038-.026.004-.001a.31.31 0 0 1 .12-.028Zm2.257.346c0 .072.012.137.03.197a.51.51 0 0 0 .114.167c.053.042.113.084.167.114.071.03.125.03.197.03.071 0 .137 0 .197-.03.072-.03.125-.054.167-.114a.989.989 0 0 1 .04-.052.45.45 0 0 0 .073-.115c.03-.072.042-.125.03-.197 0-.072 0-.137-.03-.197-.03-.072-.053-.125-.113-.167a.824.824 0 0 0-.167-.114c-.072-.03-.126-.03-.197-.03-.072 0-.138 0-.197.03-.072.03-.126.054-.168.114a.378.378 0 0 0-.113.167l-.004.016c-.011.052-.026.116-.026.181Zm.854 0c0 .042 0 .096-.012.137a.284.284 0 0 1-.072.114.507.507 0 0 1-.076.058 1.184 1.184 0 0 0-.037.026l-.027.008a.35.35 0 0 1-.11.021.321.321 0 0 1-.126-.03.284.284 0 0 1-.113-.071.369.369 0 0 1-.072-.114.321.321 0 0 1-.03-.125c0-.042 0-.096.012-.137a.283.283 0 0 1 .072-.114.507.507 0 0 1 .076-.058l.037-.026a1.18 1.18 0 0 0 .028-.008.35.35 0 0 1 .11-.021.38.38 0 0 1 .137.03.256.256 0 0 1 .113.083c.03.03.054.072.072.114.012.03.012.071.012.113h.006Zm3.834 0a.43.43 0 0 0 .042.197.51.51 0 0 0 .113.167c.054.042.114.084.167.114.072.03.126.03.197.03a.683.683 0 0 0 .197-.03c.072-.03.126-.054.168-.114a.822.822 0 0 0 .113-.167c.03-.072.03-.125.03-.197a.682.682 0 0 0-.03-.197.99.99 0 0 1-.02-.039.307.307 0 0 0-.093-.128 1.391 1.391 0 0 0-.168-.114c-.071-.03-.125-.03-.197-.03-.071 0-.137 0-.197.03-.071.03-.125.054-.167.114a.378.378 0 0 0-.113.167.467.467 0 0 0-.042.197Zm.848.023c0 .04 0 .08-.012.12a.281.281 0 0 1-.072.114.365.365 0 0 1-.113.072.321.321 0 0 1-.126.03.38.38 0 0 1-.137-.03.256.256 0 0 1-.113-.084.367.367 0 0 1-.072-.114.332.332 0 0 1-.03-.137c0-.042 0-.096.03-.137.013-.018.022-.036.031-.053.012-.022.023-.044.04-.06a.5.5 0 0 1 .077-.059 1.84 1.84 0 0 0 .037-.025 1.1 1.1 0 0 0 .014-.005c.005 0 .009-.002.013-.004a.35.35 0 0 1 .11-.021c.042 0 .096.012.138.03a.257.257 0 0 1 .113.083c.03.03.054.072.072.114-.008.048-.005.082-.003.116a.42.42 0 0 1 .003.05Zm0 0v-.005.005Zm-10.612.467c.084.03.168.03.251 0a.458.458 0 0 0 .21-.138c0 .031.003.054.006.074a.19.19 0 0 1 .005.04h.137v-.585c0-.21-.071-.323-.209-.365-.179-.053-.471-.012-.555.138l.084.083c.322-.167.513-.113.513.138h-.137c-.114.012-.239.03-.347.071a.2.2 0 0 0-.137.114.325.325 0 0 0-.03.179c0 .054.03.113.072.155.03.054.084.084.137.096Zm.276-.453c.053-.007.105-.014.154-.019.012.239-.095.376-.304.364a.23.23 0 0 1-.114-.03c-.03-.03-.053-.053-.053-.095v-.054s.011-.042.03-.054c.012-.008.021-.019.03-.029l.011-.012a.068.068 0 0 1 .054-.042v-.006l.192-.023Zm3.743-.144a1.41 1.41 0 0 0-.346.071.2.2 0 0 0-.138.114.31.31 0 0 0-.03.179c0 .054.03.113.072.155a.264.264 0 0 0 .156.084.45.45 0 0 0 .25.012.458.458 0 0 0 .21-.138l.01.046a.2.2 0 0 0 .02.068h.137v-.615c0-.072 0-.126-.042-.197a.303.303 0 0 0-.138-.138.49.49 0 0 0-.304-.03.501.501 0 0 0-.28.138l.083.113a.358.358 0 0 1 .209-.095.386.386 0 0 1 .22.03c.02.007.038.028.055.05a.46.46 0 0 0 .03.033c.011.042.011.072.011.114-.095.012-.137.012-.179.012l-.006-.006Zm-.197.471c-.042 0-.072-.012-.095-.041a.19.19 0 0 1-.054-.096.123.123 0 0 1 .012-.096c.012-.023.054-.053.083-.053.07-.017.14-.024.21-.032.055-.006.11-.011.167-.022.03.25-.114.376-.323.346v-.006Zm5.494-.012a.454.454 0 0 1-.18 0 .2.2 0 0 1-.136-.113.583.583 0 0 1-.126.096.432.432 0 0 0 .221.167c.096.03.197.03.28 0a.28.28 0 0 0 .18-.096.331.331 0 0 0 .072-.197c0-.137-.084-.22-.24-.263a1.346 1.346 0 0 1-.208-.053c-.042-.012-.096-.072-.084-.096a.157.157 0 0 1 .021-.036c.007-.01.015-.02.02-.036a.253.253 0 0 1 .073-.041.341.341 0 0 1 .155 0 .225.225 0 0 1 .125.095l.063-.042.063-.041c-.096-.221-.46-.221-.598-.084a.369.369 0 0 0-.071.113.18.18 0 0 0 0 .126.33.33 0 0 0 .054.113.47.47 0 0 0 .07.054l.025.018c.084.03.18.054.263.072.072.012.125.053.113.125-.01.025-.024.046-.035.063l-.006.009a.856.856 0 0 1-.114.053v-.006Zm2.383-.585c.02-.02.042-.039.062-.057a.792.792 0 0 0 .063-.056.55.55 0 0 0-.376-.156.523.523 0 0 0-.376.156.655.655 0 0 0-.126.388.56.56 0 0 0 .18.364.47.47 0 0 0 .346.096.488.488 0 0 0 .322-.168.597.597 0 0 0-.113-.095.679.679 0 0 1-.096.084l-.031.01a.317.317 0 0 1-.094.02c-.042 0-.084 0-.126-.013a.282.282 0 0 1-.113-.071.44.44 0 0 1-.114-.251c0-.096.012-.18.072-.263a.219.219 0 0 1 .114-.083.696.696 0 0 0 .027-.009c.033-.01.068-.021.11-.021a.38.38 0 0 1 .137.03l.072.054.054.041h.006Zm-9.985-.101a.396.396 0 0 1 .167 0c.054.012.096.053.138.095a1.08 1.08 0 0 1 .125-.113.501.501 0 0 0-.71-.018.533.533 0 0 0-.138.376c0 .137.054.263.155.376a.526.526 0 0 0 .347.126c.125 0 .25-.054.346-.138l-.095-.125c-.18.137-.347.155-.472.03a.416.416 0 0 1-.096-.24c0-.083.012-.178.072-.25a.273.273 0 0 1 .167-.125l-.006.006Zm7.112-.67a.456.456 0 0 1-.103-.037l-.034-.016-.21.537c-.135.345-.267.685-.405 1.028l.137.053c.139-.34.271-.682.406-1.028l.21-.536Zm-2.31.879s.011-.072.03-.096c.011-.03.041-.054.07-.072a.357.357 0 0 1 .096-.041.132.132 0 0 1 .096 0h.054v-.156c-.07-.011-.133 0-.201.01l-.008.002a.4.4 0 0 0-.168.126c-.012-.054-.012-.084-.012-.114h-.137v.95h.155v-.197c.005-.056.008-.112.011-.168.004-.084.009-.168.02-.25l-.007.006Zm-5.608.603h.155v-.95h-.155v.95Zm3.696-.114v.054s.012.03.03.042c.012.012.03.03.042.03a.05.05 0 0 1 .013.002c.01.003.02.006.029-.002.072 0 .113-.042.125-.126 0-.012 0-.03-.012-.041 0-.012-.012-.03-.03-.042a.042.042 0 0 0-.009-.007.111.111 0 0 0-.008-.004.055.055 0 0 1-.024-.02.05.05 0 0 1-.013-.002c-.01-.002-.021-.005-.03.003h-.04s-.03.012-.043.03a.134.134 0 0 0-.009.016.061.061 0 0 1-.02.026v.041Zm-3.517-1.2c0-.084-.042-.125-.113-.125h-.042s-.03.012-.042.03a.05.05 0 0 0-.009.016.059.059 0 0 1-.02.025c-.015.01-.014.024-.013.035v.049s.012.03.03.042a.057.057 0 0 0 .017.01.055.055 0 0 1 .025.02c.006 0 .013.003.02.006.008.003.016.006.022.006h.041s.03-.012.042-.03a.141.141 0 0 0 .01-.017.047.047 0 0 1 .02-.025c.012-.012.012-.03.012-.042Zm24.824-2.633v.322H74v-.322H37.173Zm0 9.38H74v-.322H37.173v.323Zm-3.111-15.639v2.55H0v-2.55h34.062Z" clip-rule="evenodd"/></svg>